<?xml version="1.0" encoding="UTF-8"?>
<svg width="700pt" height="700pt" version="1.1" viewBox="0 0 700 700" xmlns="http://www.w3.org/2000/svg" xmlns:xlink="http://www.w3.org/1999/xlink">
 <defs>
  <symbol id="n" overflow="visible">
   <path d="m34.734-2.0781c-1.7812 0.92969-3.6484 1.625-5.5938 2.0938-1.9375 0.47656-3.9648 0.71875-6.0781 0.71875-6.293 0-11.281-1.7578-14.969-5.2812-3.6797-3.5195-5.5156-8.2891-5.5156-14.312 0-6.0508 1.8359-10.832 5.5156-14.344 3.6875-3.5195 8.6758-5.2812 14.969-5.2812 2.1133 0 4.1406 0.23438 6.0781 0.70312 1.9453 0.46875 3.8125 1.1719 5.5938 2.1094v7.8125c-1.8047-1.2266-3.5859-2.1289-5.3438-2.7031-1.75-0.57031-3.5938-0.85938-5.5312-0.85938-3.4805 0-6.2188 1.1172-8.2188 3.3438-1.9922 2.2305-2.9844 5.3047-2.9844 9.2188 0 3.8984 0.99219 6.9609 2.9844 9.1875 2 2.2305 4.7383 3.3438 8.2188 3.3438 1.9375 0 3.7812-0.28516 5.5312-0.85938 1.7578-0.57031 3.5391-1.4766 5.3438-2.7188z"/>
  </symbol>
  <symbol id="h" overflow="visible">
   <path d="m25.422-20.641c-0.79297-0.36328-1.5859-0.63281-2.375-0.8125-0.78125-0.17578-1.5703-0.26562-2.3594-0.26562-2.3359 0-4.1328 0.74609-5.3906 2.2344-1.25 1.4922-1.875 3.6328-1.875 6.4219v13.062h-9.0625v-28.359h9.0625v4.6562c1.1641-1.8516 2.5039-3.207 4.0156-4.0625 1.5078-0.85156 3.3164-1.2812 5.4219-1.2812 0.3125 0 0.64453 0.015625 1 0.046875 0.35156 0.023438 0.86328 0.074219 1.5312 0.15625z"/>
  </symbol>
  <symbol id="a" overflow="visible">
   <path d="m32.672-14.25v2.5781h-21.203c0.21875 2.125 0.98438 3.7188 2.2969 4.7812 1.3203 1.0625 3.1641 1.5938 5.5312 1.5938 1.9062 0 3.8594-0.28125 5.8594-0.84375s4.0547-1.4141 6.1719-2.5625v6.9844c-2.1484 0.8125-4.293 1.4219-6.4375 1.8281-2.1484 0.41406-4.293 0.625-6.4375 0.625-5.125 0-9.1094-1.3008-11.953-3.9062-2.8438-2.6133-4.2656-6.2734-4.2656-10.984 0-4.625 1.3945-8.2578 4.1875-10.906 2.7891-2.6562 6.6328-3.9844 11.531-3.9844 4.457 0 8.0234 1.3438 10.703 4.0312 2.6758 2.6875 4.0156 6.2773 4.0156 10.766zm-9.3281-3.0156c0-1.7266-0.50781-3.1172-1.5156-4.1719-1-1.0508-2.3086-1.5781-3.9219-1.5781-1.7617 0-3.1875 0.49609-4.2812 1.4844-1.0938 0.98047-1.7773 2.4023-2.0469 4.2656z"/>
  </symbol>
  <symbol id="b" overflow="visible">
   <path d="m17.062-12.766c-1.8867 0-3.3086 0.32422-4.2656 0.96875-0.94922 0.63672-1.4219 1.5781-1.4219 2.8281 0 1.1562 0.37891 2.0586 1.1406 2.7031 0.76953 0.64844 1.8359 0.96875 3.2031 0.96875 1.707 0 3.1445-0.60938 4.3125-1.8281 1.1641-1.2266 1.75-2.7578 1.75-4.5938v-1.0469zm13.859-3.4219v16.188h-9.1406v-4.2031c-1.2188 1.7188-2.5898 2.9766-4.1094 3.7656-1.5234 0.78125-3.3711 1.1719-5.5469 1.1719-2.9375 0-5.3242-0.85156-7.1562-2.5625-1.8242-1.7188-2.7344-3.9453-2.7344-6.6875 0-3.3203 1.1406-5.7578 3.4219-7.3125 2.2891-1.5508 5.8828-2.3281 10.781-2.3281h5.3438v-0.70312c0-1.4375-0.57031-2.4883-1.7031-3.1562-1.125-0.66406-2.8906-1-5.2969-1-1.9375 0-3.7461 0.19531-5.4219 0.57812-1.668 0.38672-3.2188 0.96875-4.6562 1.75v-6.9062c1.9453-0.47656 3.8984-0.83594 5.8594-1.0781 1.957-0.25 3.9141-0.375 5.875-0.375 5.1133 0 8.8047 1.0117 11.078 3.0312 2.2695 2.0117 3.4062 5.2891 3.4062 9.8281z"/>
  </symbol>
  <symbol id="g" overflow="visible">
   <path d="m14.25-36.406v8.0469h9.3438v6.4844h-9.3438v12.031c0 1.3125 0.25781 2.2031 0.78125 2.6719 0.53125 0.46094 1.5703 0.6875 3.125 0.6875h4.6562v6.4844h-7.7656c-3.5859 0-6.125-0.74219-7.625-2.2344-1.4922-1.5-2.2344-4.0352-2.2344-7.6094v-12.031h-4.5v-6.4844h4.5v-8.0469z"/>
  </symbol>
  <symbol id="f" overflow="visible">
   <path d="m23.656-24.203v-15.203h9.1094v39.406h-9.1094v-4.1094c-1.25 1.6797-2.6328 2.9062-4.1406 3.6875-1.5 0.76953-3.2344 1.1562-5.2031 1.1562-3.5 0-6.375-1.3828-8.625-4.1562-2.2422-2.7812-3.3594-6.3594-3.3594-10.734s1.1172-7.9453 3.3594-10.719c2.25-2.7812 5.125-4.1719 8.625-4.1719 1.957 0 3.6914 0.39844 5.2031 1.1875 1.5078 0.78125 2.8906 2 4.1406 3.6562zm-5.9844 18.359c1.9453 0 3.4297-0.70703 4.4531-2.125 1.0195-1.4258 1.5312-3.4883 1.5312-6.1875 0-2.6953-0.51172-4.7539-1.5312-6.1719-1.0234-1.4141-2.5078-2.125-4.4531-2.125-1.9297 0-3.4023 0.71094-4.4219 2.125-1.0234 1.418-1.5312 3.4766-1.5312 6.1719 0 2.6992 0.50781 4.7617 1.5312 6.1875 1.0195 1.418 2.4922 2.125 4.4219 2.125z"/>
  </symbol>
  <symbol id="e" overflow="visible">
   <path d="m19.453-5.8438c1.9375 0 3.4141-0.70703 4.4375-2.125 1.0195-1.4258 1.5312-3.4883 1.5312-6.1875 0-2.6953-0.51172-4.7539-1.5312-6.1719-1.0234-1.4141-2.5-2.125-4.4375-2.125-1.9492 0-3.4453 0.71484-4.4844 2.1406-1.0312 1.418-1.5469 3.4688-1.5469 6.1562s0.51562 4.7461 1.5469 6.1719c1.0391 1.4297 2.5352 2.1406 4.4844 2.1406zm-6.0312-18.359c1.25-1.6562 2.6328-2.875 4.1562-3.6562 1.5195-0.78906 3.2656-1.1875 5.2344-1.1875 3.5 0 6.3672 1.3906 8.6094 4.1719 2.25 2.7734 3.375 6.3438 3.375 10.719s-1.125 7.9531-3.375 10.734c-2.2422 2.7734-5.1094 4.1562-8.6094 4.1562-1.9688 0-3.7148-0.39062-5.2344-1.1719-1.5234-0.78906-2.9062-2.0156-4.1562-3.6719v4.1094h-9.0625v-39.406h9.0625z"/>
  </symbol>
  <symbol id="d" overflow="visible">
   <path d="m0.64062-28.359h9.0625l7.6094 19.25 6.4844-19.25h9.0781l-11.938 31.047c-1.1992 3.1562-2.5938 5.3594-4.1875 6.6094-1.5938 1.2578-3.6992 1.8906-6.3125 1.8906h-5.25v-5.9531h2.8438c1.5312 0 2.6445-0.24609 3.3438-0.73438 0.70703-0.49219 1.2539-1.3672 1.6406-2.625l0.25-0.78125z"/>
  </symbol>
  <symbol id="c" overflow="visible">
   <path d="m19.906-23.172c1.5312 0 2.6914-0.33594 3.4844-1.0156 0.80078-0.67578 1.2031-1.6719 1.2031-2.9844 0-1.3008-0.40234-2.2891-1.2031-2.9688-0.79297-0.6875-1.9531-1.0312-3.4844-1.0312h-5.3906v8zm0.32812 16.531c1.957 0 3.4258-0.41016 4.4062-1.2344 0.98828-0.82031 1.4844-2.0703 1.4844-3.75 0-1.6328-0.49219-2.8594-1.4688-3.6719-0.98047-0.82031-2.4531-1.2344-4.4219-1.2344h-5.7188v9.8906zm9.0625-13.594c2.0938 0.60547 3.7109 1.7305 4.8594 3.375 1.1445 1.6367 1.7188 3.6406 1.7188 6.0156 0 3.6484-1.2344 6.3672-3.7031 8.1562-2.4609 1.793-6.2031 2.6875-11.234 2.6875h-16.172v-37.812h14.625c5.25 0 9.0508 0.79688 11.406 2.3906 2.3633 1.5859 3.5469 4.125 3.5469 7.625 0 1.8359-0.43359 3.3984-1.2969 4.6875-0.86719 1.293-2.1172 2.25-3.75 2.875z"/>
  </symbol>
  <symbol id="m" overflow="visible">
   <path d="m32.875-17.266v17.266h-9.125v-13.219c0-2.4453-0.058594-4.1328-0.17188-5.0625-0.10547-0.92578-0.29297-1.6094-0.5625-2.0469-0.35547-0.59375-0.83984-1.0508-1.4531-1.375-0.60547-0.33203-1.293-0.5-2.0625-0.5-1.8984 0-3.3867 0.73047-4.4688 2.1875-1.0742 1.4609-1.6094 3.4805-1.6094 6.0625v13.953h-9.0625v-28.359h9.0625v4.1562c1.3633-1.6562 2.8125-2.875 4.3438-3.6562 1.5391-0.78906 3.2383-1.1875 5.0938-1.1875 3.2812 0 5.7695 1.0078 7.4688 3.0156 1.6953 2.0117 2.5469 4.9336 2.5469 8.7656z"/>
  </symbol>
  <symbol id="l" overflow="visible">
   <path d="m14.516-30.438v23.062h3.4844c3.9883 0 7.0312-0.98438 9.125-2.9531 2.1016-1.9766 3.1562-4.8477 3.1562-8.6094 0-3.75-1.0469-6.6016-3.1406-8.5625-2.0938-1.957-5.1406-2.9375-9.1406-2.9375zm-9.75-7.375h10.281c5.7383 0 10.008 0.41406 12.812 1.2344 2.8125 0.82422 5.2227 2.2148 7.2344 4.1719 1.7695 1.6992 3.0859 3.6641 3.9531 5.8906 0.86328 2.2305 1.2969 4.7578 1.2969 7.5781 0 2.8555-0.43359 5.4023-1.2969 7.6406-0.86719 2.2305-2.1836 4.1992-3.9531 5.9062-2.0234 1.9609-4.4531 3.3516-7.2969 4.1719-2.8359 0.8125-7.0859 1.2188-12.75 1.2188h-10.281z"/>
  </symbol>
  <symbol id="k" overflow="visible">
   <path d="m0.78125-28.359h9.0625l7.0781 19.594 7.0312-19.594h9.0938l-11.172 28.359h-9.9531z"/>
  </symbol>
  <symbol id="j" overflow="visible">
   <path d="m4.3594-28.359h9.0625v28.359h-9.0625zm0-11.047h9.0625v7.4062h-9.0625z"/>
  </symbol>
  <symbol id="i" overflow="visible">
   <path d="m26.516-27.469v6.875c-1.9492-0.80078-3.8242-1.4062-5.625-1.8125-1.8047-0.40625-3.5078-0.60938-5.1094-0.60938-1.7305 0-3.0117 0.21875-3.8438 0.65625-0.83594 0.42969-1.25 1.0859-1.25 1.9688 0 0.73047 0.3125 1.293 0.9375 1.6875 0.63281 0.38672 1.7734 0.66797 3.4219 0.84375l1.5938 0.23438c4.6328 0.59375 7.7539 1.5703 9.3594 2.9219 1.6016 1.3438 2.4062 3.4609 2.4062 6.3438 0 3.0234-1.1172 5.293-3.3438 6.8125-2.2305 1.5234-5.5547 2.2812-9.9688 2.2812-1.875 0-3.8125-0.15234-5.8125-0.45312-2-0.28906-4.0586-0.72656-6.1719-1.3125v-6.8906c1.8125 0.875 3.6641 1.5312 5.5625 1.9688 1.8945 0.4375 3.8203 0.65625 5.7812 0.65625 1.7812 0 3.1133-0.24219 4-0.73438 0.89453-0.48828 1.3438-1.2109 1.3438-2.1719 0-0.8125-0.30859-1.4141-0.92188-1.8125-0.61719-0.39453-1.8438-0.70312-3.6875-0.92188l-1.5938-0.20312c-4.0312-0.50781-6.8594-1.4453-8.4844-2.8125-1.6172-1.3633-2.4219-3.4414-2.4219-6.2344 0-3 1.0234-5.2227 3.0781-6.6719 2.0625-1.457 5.2227-2.1875 9.4844-2.1875 1.6641 0 3.4141 0.13281 5.25 0.39062 1.8438 0.25 3.8477 0.64844 6.0156 1.1875z"/>
  </symbol>
 </defs>
 <g>
  <path d="m616.83 229.7-0.20703-0.10547c-9.7461-54.547-147.78-74.043-266.62-74.043-24.68 0-49.051 0.82812-72.594 2.4883v-37.957c0-9.0234 7.3633-16.387 16.387-16.387h147.68c27.48 0 50.918-20.535 53.406-46.77 1.3477-14.621-3.4219-29.141-13.273-39.926-9.75-10.781-23.645-17.004-38.27-17.004h-139.58c-71.66 0-130.05 58.387-130.05 130.04v42.625c-55.688 13.066-85.969 32.148-90.324 56.934l-0.20703 0.10547c-21.262 12.855-33.914 34.012-33.914 56.617v163.75c0 22.504 12.652 43.66 33.91 56.621l4.668 2.8008c52.27 31.629 150.27 50.504 262.16 50.504s209.89-18.875 262.06-50.605l4.668-2.8008c21.258-12.859 33.91-34.016 33.91-56.621v-163.65c0.10547-22.605-12.547-43.762-33.809-56.621zm-443.12-35.57v2.9023c0 5.7031-4.668 10.371-10.371 10.371s-10.371 4.668-10.371 10.371 4.668 10.371 10.371 10.371c17.109 0 31.109-14 31.109-31.109v-7.6758l0.003906-23.438v-35.883c0-60.25 49.051-109.3 109.3-109.3h139.58c8.7109 0 17.109 3.7344 23.023 10.164 6.0156 6.5352 8.8164 15.141 7.8828 24.059-1.4531 15.656-15.867 28-32.668 28h-147.78c-20.43 0-37.125 16.695-37.125 37.125v76.945c0 17.109 14 31.109 31.109 31.109 5.7031 0 10.371-4.668 10.371-10.371 0-5.7031-4.668-10.371-10.371-10.371s-10.371-4.668-10.371-10.371v-18.043c23.543-1.6562 47.809-2.6914 72.594-2.6914 129.94 0 233.44 23.125 245.26 53.613-0.51953 0.20703-1.0352 0.51953-1.5547 0.82812-1.4531 0.62109-3.0078 1.3477-4.4609 1.9688-1.8672 0.82812-3.8359 1.6602-5.8086 2.3867-1.6602 0.62109-3.3203 1.2461-4.9766 1.8672-2.0742 0.72656-4.25 1.5547-6.4297 2.2812-1.7617 0.62109-3.6289 1.2461-5.4961 1.8672-2.2812 0.72656-4.5625 1.4531-6.9492 2.1797-1.9688 0.62109-3.9414 1.1406-6.0156 1.7617-2.4883 0.72656-4.875 1.3477-7.4648 2.0742-2.0742 0.51953-4.25 1.1406-6.3242 1.6602-2.5938 0.62109-5.2891 1.2461-7.9844 1.8672-2.1797 0.51953-4.4609 1.0352-6.7422 1.5547-2.6953 0.62109-5.4961 1.1406-8.2969 1.7617-2.3867 0.51953-4.668 0.93359-7.0508 1.4531-2.9023 0.51953-5.8086 1.0352-8.7109 1.5547-2.3867 0.41406-4.875 0.82813-7.3633 1.2461-3.0078 0.51953-6.0156 0.93359-9.125 1.4531-2.4883 0.41406-5.082 0.82812-7.5703 1.1406-3.1094 0.41406-6.2227 0.82812-9.4375 1.2461-2.5938 0.3125-5.1836 0.72656-7.7773 1.0352-3.2148 0.41406-6.5352 0.72656-9.75 1.1406-2.5938 0.3125-5.2891 0.62109-7.8828 0.82812-3.3203 0.3125-6.7422 0.62109-10.059 0.93359-2.6953 0.20703-5.2891 0.51953-7.9844 0.72656-3.4219 0.3125-6.9492 0.51953-10.371 0.72656-2.5938 0.20703-5.1836 0.41406-7.8828 0.51953-3.7344 0.20703-7.4648 0.41406-11.199 0.62109-2.3867 0.10547-4.875 0.3125-7.2578 0.41406-4.1484 0.20703-8.3984 0.3125-12.547 0.41406-1.9688 0.10547-4.043 0.10547-6.0156 0.20703-6.3242-0.10156-12.547 0-18.77 0-6.5352 0-12.965-0.10547-19.395-0.20703-2.2812 0-4.4609-0.10547-6.7422-0.20703-4.1484-0.10547-8.2969-0.20703-12.445-0.3125-2.5938-0.10547-5.082-0.20703-7.6758-0.3125-3.7344-0.20703-7.4648-0.3125-11.098-0.51953-2.6953-0.20703-5.3945-0.3125-8.0898-0.51953-3.4219-0.20703-6.9492-0.41406-10.371-0.72656-2.8008-0.20703-5.4961-0.41406-8.1914-0.72656-3.3203-0.3125-6.5352-0.51953-9.75-0.82812-2.8008-0.3125-5.4961-0.62109-8.1914-0.82812-3.1094-0.3125-6.2227-0.62109-9.332-1.0352-2.6953-0.3125-5.3945-0.72656-8.0898-1.0352-3.0078-0.41406-6.0156-0.72656-8.918-1.1406-2.6953-0.41406-5.2891-0.82812-7.8828-1.1406-2.9023-0.41406-5.7031-0.82812-8.5039-1.3477-2.5938-0.41406-5.082-0.82813-7.6758-1.3477-2.6953-0.51953-5.3945-0.93359-8.0898-1.4531-2.4883-0.51953-4.875-0.93359-7.3633-1.4531-2.5938-0.51953-5.1836-1.0352-7.6758-1.6602-2.3867-0.51953-4.668-1.0352-6.9492-1.5547-2.4883-0.62109-4.875-1.1406-7.2578-1.7617-2.2812-0.51953-4.4609-1.1406-6.6367-1.7617-2.2812-0.62109-4.668-1.2461-6.8438-1.8672-2.0742-0.62109-4.1484-1.2461-6.2227-1.8672-2.1797-0.62109-4.3555-1.3477-6.4297-2.0742-1.9688-0.62109-3.9414-1.3477-5.8086-1.9688-2.0742-0.72656-4.043-1.4531-6.0156-2.1797-1.7617-0.72656-3.5273-1.3477-5.2891-2.0742-1.8672-0.72656-3.7344-1.5547-5.4961-2.2812-1.6602-0.72656-3.2148-1.4531-4.7695-2.1797-0.72656-0.3125-1.3477-0.62109-1.9688-0.93359 5.5078-13.688 30.293-26.547 68.871-36.191zm432.34 294.73-4.668 2.8008c-48.426 29.348-144.77 47.598-251.38 47.598s-202.95-18.25-251.38-47.598l-4.668-2.8008c-15.035-9.125-23.953-23.645-23.953-38.891v-163.64c0-15.141 8.8164-29.555 23.645-38.68 0.82812 0.41406 1.6602 0.72656 2.4883 1.1406 1.7617 0.82812 3.5273 1.6602 5.3945 2.4883 1.7617 0.82812 3.6289 1.5547 5.6016 2.3867 1.9688 0.82812 3.8359 1.5547 5.9102 2.3867 1.9688 0.72656 3.9414 1.5547 6.0156 2.2812 2.0742 0.72656 4.1484 1.4531 6.3242 2.1797 2.1797 0.72656 4.3555 1.4531 6.5352 2.0742 2.2812 0.72656 4.4609 1.4531 6.8438 2.0742 2.2812 0.62109 4.5625 1.3477 6.9492 1.9688s4.7695 1.3477 7.2578 1.9688c2.3867 0.62109 4.875 1.2461 7.3633 1.8672 2.4883 0.62109 5.082 1.2461 7.5703 1.7617 2.5938 0.62109 5.1836 1.1406 7.7773 1.6602 2.5938 0.51953 5.2891 1.1406 7.8828 1.6602 2.6953 0.51953 5.4961 1.0352 8.1914 1.5547 2.6953 0.51953 5.3945 1.0352 8.1914 1.4531 2.8008 0.51953 5.7031 0.93359 8.6055 1.3477 2.8008 0.41406 5.6016 0.93359 8.5039 1.3477 3.0078 0.41406 6.0156 0.82812 9.0234 1.2461 2.9023 0.41406 5.7031 0.82812 8.6055 1.1406 3.1094 0.41406 6.3242 0.72656 9.4375 1.0352 2.9023 0.3125 5.8086 0.62109 8.7109 0.93359 3.3203 0.3125 6.6367 0.62109 9.957 0.93359 2.9023 0.20703 5.8086 0.51953 8.7109 0.72656 3.5273 0.3125 7.0508 0.51953 10.578 0.72656 2.8008 0.20703 5.6016 0.41406 8.5039 0.62109 3.7344 0.20703 7.5703 0.41406 11.406 0.51953 2.6953 0.10547 5.3945 0.3125 8.0898 0.41406 4.3555 0.20703 8.7109 0.3125 13.172 0.41406 2.1797 0.10547 4.4609 0.10547 6.6367 0.20703 6.6367 0.10156 13.375 0.20703 20.117 0.20703 6.5352 0 13.066-0.10547 19.496-0.20703 2.0742 0 4.043-0.10547 6.1172-0.20703 4.4609-0.10547 8.918-0.20703 13.379-0.41406 2.4883-0.10547 4.9766-0.20703 7.3633-0.41406 3.9414-0.20703 7.8828-0.41406 11.82-0.62109 2.6953-0.20703 5.2891-0.41406 7.9844-0.51953 3.7344-0.3125 7.3633-0.51953 11.098-0.82812 2.6953-0.20703 5.2891-0.51953 7.9844-0.72656 3.6289-0.3125 7.1562-0.62109 10.785-1.0352 2.6953-0.3125 5.2891-0.62109 7.8828-0.82813 3.5273-0.41406 6.9492-0.82812 10.473-1.2461 2.5938-0.3125 5.1836-0.72656 7.6758-1.0352 3.4219-0.41406 6.7422-0.93359 10.059-1.3477 2.5938-0.41406 5.082-0.82812 7.6758-1.1406 3.2148-0.51953 6.4297-1.0352 9.6445-1.5547 2.4883-0.41406 4.9766-0.93359 7.4648-1.3477 3.1094-0.51953 6.2227-1.1406 9.2305-1.7617 2.4883-0.51953 4.875-0.93359 7.2578-1.4531 2.9023-0.62109 5.9102-1.2461 8.7109-1.8672 2.3867-0.51953 4.668-1.0352 6.9492-1.6602 2.8008-0.62109 5.6016-1.3477 8.2969-2.0742 2.2812-0.62109 4.4609-1.1406 6.7422-1.7617 2.5938-0.72656 5.1836-1.4531 7.6758-2.1797 2.1797-0.62109 4.25-1.2461 6.3242-1.8672 2.3867-0.72656 4.7695-1.5547 7.1562-2.2812 2.0742-0.72656 4.043-1.3477 6.0156-2.0742 2.1797-0.82812 4.3555-1.5547 6.5352-2.3867 1.8672-0.72656 3.7344-1.4531 5.6016-2.1797 1.9688-0.82812 3.9414-1.6602 5.8086-2.4883 1.7617-0.72656 3.5273-1.5547 5.1836-2.3867 0.62109-0.3125 1.4531-0.62109 2.0742-0.93359 14.828 9.125 23.75 23.539 23.75 38.68v33.703c0 15.246-8.918 29.762-23.957 38.891l-4.668 2.8008c-22.816 13.793-56.621 25.512-97.793 33.703-5.6016 1.1406-9.2305 6.5352-8.0898 12.238 0.93359 4.9766 5.2891 8.2969 10.164 8.2969 0.62109 0 1.3477-0.10547 2.0742-0.20703 44.18-8.8164 79.332-21.051 104.54-36.297l4.668-2.8008c4.875-3.0078 9.2305-6.4297 13.172-10.164v15.762c0 15.246-8.918 29.762-23.957 38.891l-4.668 2.8008c-33.918 20.426-90.438 35.566-159.4 42.93-5.7031 0.62109-9.8516 5.7031-9.2305 11.406 0.51953 5.2891 4.9766 9.2305 10.266 9.2305 0.41406 0 0.72656 0 1.1406-0.10547 50.918-5.3945 121.33-17.629 167.69-45.734l4.668-2.8008c4.875-3.0078 9.2305-6.4297 13.172-10.164v21.363c0 15.25-8.918 29.77-23.957 38.895z"/>
  <use x="49.257812" y="715.554688" xlink:href="#n"/>
  <use x="87.3125" y="715.554688" xlink:href="#h"/>
  <use x="112.882812" y="715.554688" xlink:href="#a"/>
  <use x="148.050781" y="715.554688" xlink:href="#b"/>
  <use x="183.042969" y="715.554688" xlink:href="#g"/>
  <use x="207.828125" y="715.554688" xlink:href="#a"/>
  <use x="242.996094" y="715.554688" xlink:href="#f"/>
  <use x="298.164062" y="715.554688" xlink:href="#e"/>
  <use x="335.28125" y="715.554688" xlink:href="#d"/>
  <use x="387.132812" y="715.554688" xlink:href="#c"/>
  <use x="426.652344" y="715.554688" xlink:href="#a"/>
  <use x="461.820312" y="715.554688" xlink:href="#m"/>
  <use x="516.785156" y="715.554688" xlink:href="#l"/>
  <use x="559.828125" y="715.554688" xlink:href="#b"/>
  <use x="594.816406" y="715.554688" xlink:href="#k"/>
  <use x="628.617188" y="715.554688" xlink:href="#j"/>
  <use x="646.390625" y="715.554688" xlink:href="#i"/>
 </g>
</svg>
